<svg width="24" height="24" viewBox="0 0 24 24" fill="none" xmlns="http://www.w3.org/2000/svg">
<circle cx="12" cy="12" r="5.5" stroke="black"/>
<path d="M13.9 12C13.9 13.6095 13.6381 15.0437 13.2328 16.0569C13.0296 16.565 12.8001 16.9425 12.5709 17.1849C12.3427 17.4263 12.1496 17.5 12 17.5C11.8504 17.5 11.6573 17.4263 11.4291 17.1849C11.1998 16.9425 10.9704 16.565 10.7672 16.0569C10.3618 15.0437 10.1 13.6095 10.1 12C10.1 10.3905 10.3618 8.95634 10.7672 7.94305C10.9704 7.43502 11.1998 7.05745 11.4291 6.81506C11.6573 6.57373 11.8504 6.5 12 6.5C12.1496 6.5 12.3427 6.57373 12.5709 6.81506C12.8001 7.05745 13.0296 7.43502 13.2328 7.94305C13.6381 8.95634 13.9 10.3905 13.9 12Z" stroke="black"/>
<rect x="7" y="11.5" width="11" height="1" fill="black"/>
</svg>
